<svg xmlns="http://www.w3.org/2000/svg" viewBox="0 0 512 512" role="img" aria-label="三多轉 85 公車">
  <rect width="512" height="512" rx="96" fill="#0f766e"/>
  <path fill="#ffffff" d="M132 112h248c35 0 64 29 64 64v150c0 28-18 52-43 61v37c0 11-9 20-20 20h-29c-11 0-20-9-20-20v-32H180v32c0 11-9 20-20 20h-29c-11 0-20-9-20-20v-37c-25-9-43-33-43-61V176c0-35 29-64 64-64Zm12 56c-13 0-24 11-24 24v70h272v-70c0-13-11-24-24-24H144Zm8 172a28 28 0 1 0 0-56 28 28 0 0 0 0 56Zm208 0a28 28 0 1 0 0-56 28 28 0 0 0 0 56Z"/>
  <path fill="#f3c623" d="M172 86h168c14 0 26 12 26 26H146c0-14 12-26 26-26Z"/>
</svg>
